<?xml version="1.0" standalone="no"?> <!DOCTYPE svg PUBLIC "-//W3C//DTD SVG 1.0//EN" "http://www.w3.org/TR/2001/REC-SVG-20010904/DTD/svg10.dtd" > <svg xmlns="http://www.w3.org/2000/svg" width="100%" height="100%">
<defs >
<font id="dincomp-black" horiz-adv-x="575" ><font-face
    font-family="DINComp-Black"
    units-per-em="1000"
    panose-1="2 11 10 4 2 1 1 1 1 2"
    ascent="1041"
    descent="-513"
    alphabetic="0" />
<missing-glyph horiz-adv-x="579" d="M62 712H517V0H62V712ZM409 108V604H170V108H409Z" />
<glyph unicode=" " glyph-name="space" horiz-adv-x="222" />
<glyph unicode="!" glyph-name="exclam" horiz-adv-x="366" d="M262 237H144L100 712H306L262 237ZM119 0V161H287V0H119Z" />
<glyph unicode="&quot;" glyph-name="quotedbl" horiz-adv-x="488" d="M284 478V712H431V478H284ZM57 478V712H204V478H57Z" />
<glyph unicode="#" glyph-name="numbersign" horiz-adv-x="713" d="M583 412L570 324H628V169H545L518 0H344L371 169H281L254 0H80L107 169H49V324H132L145 412H87V567H170L194 720H368L344 567H434L458 720H632L608 567H666V412H583ZM319 412L306 324H396L409 412H319Z" />
<glyph unicode="$" glyph-name="dollar" horiz-adv-x="633" d="M590 218Q590 171 574 134T529 69T461 24T376 -1V-114H250V-6Q176 -4 116 16T5 88L117 200Q144 173 186 162T270 150V282L231 287Q138 299 88 350Q39 400 39 493Q39 536 53 574T95 641T161 689T250
715V806H376V717Q439 713 489 693T579 633L469 523Q457 535 443 542T413 554T382 561T356 564V439L397 433Q491 420 537 374Q566 346 578 307T590 218ZM418 214Q418 242 404 256Q395 266 382 269T356 275V153Q418 165 418 214ZM270 563Q237 557 223 538T208 499Q208
492 211 483T222 466Q229 459 240 453T270 445V563Z" />
<glyph unicode="%" glyph-name="percent" horiz-adv-x="857" d="M812 133Q812 97 800 71T766 28T718 3T661 -6Q631 -6 604 2T556 28T523 71T510 133V228Q510 264 522 290T556 333T604 358T661 367Q691 367 718 359T766 333T799 290T812 228V133ZM347 484Q347 448
335 422T301 379T253 354T196 345Q166 345 139 353T91 379T58 422T45 484V579Q45 615 57 641T91 684T139 709T196 718Q226 718 253 710T301 684T334 641T347 579V484ZM322 0H196L535 712H661L322 0ZM231 575Q231 597 221 605T196 614Q181 614 171 606T161 575V488Q161
466 171 458T196 449Q211 449 221 457T231 488V575ZM696 224Q696 246 686 254T661 263Q646 263 636 255T626 224V137Q626 115 636 107T661 98Q676 98 686 106T696 137V224Z" />
<glyph unicode="&amp;" glyph-name="ampersand" horiz-adv-x="710" d="M504 0L459 52Q445 41 430 31T395 12T350 -1T290 -6Q164 -6 107 53T49 216Q49 247 59 273T85 322T122 363T162 394Q153 404 141 418T119 451T102 492T95 541Q95 620 148 669T304 718Q351 718
388 705T450 668T489 611T503 539Q503 516 497 498T480 463T452 432T412 401L383 380L467 283Q474 292 480 304T490 330T496 358T500 386H654Q649 316 630 261T571 163L710 0H504ZM249 295Q224 278 216 261T207 217Q207 184 232 163T290 142Q317 142 332 149T360
168L249 295ZM349 538Q349 556 338 568T304 580Q278 580 269 568T259 537Q259 524 269 510T297 479L321 496Q334 505 341 515T349 538Z" />
<glyph unicode="&apos;" glyph-name="quotesingle" horiz-adv-x="262" d="M57 478V712H205V478H57Z" />
<glyph unicode="(" glyph-name="parenleft" horiz-adv-x="358" d="M199 -94Q173 -68 147 -41T101 19Q81 51 77 88T72 163V549Q72 586 76 623T101 693Q120 725 146 752T199 806L309 696Q300 687 293 680T279 665T266 649T252 629Q236 602 236 543V169Q236 110 252
83Q259 71 265 63T278 48T292 33T309 16L199 -94Z" />
<glyph unicode=")" glyph-name="parenright" horiz-adv-x="358" d="M286 163Q286 126 282 89T257 19Q238 -13 212 -40T159 -94L49 16Q58 25 65 32T79 47T92 63T106 83Q122 110 122 169V543Q122 602 106 629Q99 641 93 649T80 664T66 679T49 696L159 806Q185 780
211 753T257 693Q277 661 281 624T286 549V163Z" />
<glyph unicode="*" glyph-name="asterisk" horiz-adv-x="506" d="M403 356L304 420L309 302H197L202 420L103 356L47 453L152 507L47 561L103 658L202 594L197 712H309L304 594L403 658L459 561L354 507L459 453L403 356Z" />
<glyph unicode="+" glyph-name="plus" horiz-adv-x="556" d="M355 206V54H201V206H49V360H201V512H355V360H507V206H355Z" />
<glyph unicode="," glyph-name="comma" horiz-adv-x="288" d="M57 -178V174H231V-50L57 -178Z" />
<glyph unicode="-" glyph-name="hyphen" horiz-adv-x="426" d="M49 218V372H377V218H49Z" />
<glyph unicode="." glyph-name="period" horiz-adv-x="294" d="M57 0V180H237V0H57Z" />
<glyph unicode="/" glyph-name="slash" horiz-adv-x="431" d="M152 -74H0L285 786H437L152 -74Z" />
<glyph unicode="0" glyph-name="zero" horiz-adv-x="556" d="M507 216Q507 161 488 120T437 50T364 8T278 -6Q234 -6 193 8T119 50T68 119T49 216V496Q49 551 68 592T119 662T192 704T278 718Q322 718 363 704T437 662T488 593T507 496V216ZM343 496Q343 534 324
552T278 570Q252 570 233 552T213 496V215Q213 177 232 160T278 142Q304 142 323 159T343 215V496Z" />
<glyph unicode="1" glyph-name="one" horiz-adv-x="556" d="M242 0V537L90 405V580L242 712H406V0H242Z" />
<glyph unicode="2" glyph-name="two" horiz-adv-x="556" d="M53 0V148L311 428Q331 449 339 465T347 504Q347 533 331 551T283 570Q272 570 260 567T239 556T223 535T217 501H53Q53 553 71 593T121 662T194 704T283 718Q332 718 374 703T446 661T494 593T511 503Q511
475 506 453T489 410T461 370T423 328L253 148H511V0H53Z" />
<glyph unicode="3" glyph-name="three" horiz-adv-x="556" d="M516 213Q516 157 497 116T445 48T369 8T279 -6Q235 -6 193 6T117 45T63 114T42 217H206Q206 179 227 161T279 142Q311 142 331 161T352 218Q352 250 331 271T276 293H253V435H276Q313 435 328 456T344
502Q344 536 325 553T279 570Q253 570 234 553T214 503H50Q50 553 68 593T117 660T189 703T279 718Q328 718 370 703T443 659T491 592T508 507Q508 478 502 456T485 417T461 389T434 368Q449 358 463 345T489 313T508 270T516 213Z" />
<glyph unicode="4" glyph-name="four" horiz-adv-x="556" d="M477 94V0H321V94H26V250L262 712H442L206 250H321V344H477V250H530V94H477Z" />
<glyph unicode="5" glyph-name="five" horiz-adv-x="556" d="M512 243Q512 211 509 185T499 137T479 95T446 55Q423 32 382 13T281 -6Q221 -6 178 13T112 56Q74 94 64 136T50 217H214Q218 182 233 162T281 142Q309 142 327 160Q348 181 348 243Q348 302 330 323T281
344Q263 344 252 339T233 326T221 309T214 293H63V712H497V564H212V454Q223 462 249 472T308 482Q355 482 389 468T446 432Q468 410 481 388T501 341T510 293T512 243Z" />
<glyph unicode="6" glyph-name="six" horiz-adv-x="556" d="M512 223Q512 166 493 124T442 52T366 9T275 -6Q227 -6 184 8T109 52T57 123T38 223Q38 242 41 262T51 304T70 354T100 418L243 712H423L282 433Q293 437 303 437T322 438Q355 438 388 424T449 383T494
316T512 223ZM348 223Q348 263 327 283T275 304Q245 304 224 284T202 223Q202 183 223 163T275 142Q305 142 326 162T348 223Z" />
<glyph unicode="7" glyph-name="seven" horiz-adv-x="556" d="M300 0H120L342 564H190V452H34V712H522V564L300 0Z" />
<glyph unicode="8" glyph-name="eight" horiz-adv-x="556" d="M517 213Q517 157 498 116T447 48T371 8T278 -6Q229 -6 186 7T110 48T58 116T39 213Q39 246 47 271T68 314T95 345T119 366Q110 374 97 386T73 415T54 455T46 507Q46 558 65 597T116 663T190 704T278
718Q324 718 366 704T440 663T491 597T510 507Q510 478 502 456T483 416T459 386T437 366Q447 358 461 346T487 315T508 271T517 213ZM353 217Q353 248 331 270T278 292Q247 292 225 270T203 217Q203 186 225 164T278 142Q309 142 331 164T353 217ZM346 502Q346
531 327 550T278 570Q249 570 230 551T210 502Q210 473 229 454T278 434Q307 434 326 453T346 502Z" />
<glyph unicode="9" glyph-name="nine" horiz-adv-x="556" d="M518 489Q518 466 514 444T502 400T483 352T456 295L313 0H133L274 279Q263 275 253 275T234 274Q201 274 168 288T107 329T62 396T44 489Q44 546 63 588T114 660T190 703T281 718Q329 718 372 704T447
660T499 589T518 489ZM354 489Q354 529 333 549T281 570Q251 570 230 550T208 489Q208 449 229 429T281 408Q311 408 332 428T354 489Z" />
<glyph unicode=":" glyph-name="colon" horiz-adv-x="317" d="M80 253V433H260V253H80ZM80 0V180H260V0H80Z" />
<glyph unicode=";" glyph-name="semicolon" horiz-adv-x="317" d="M83 -178V174H257V-50L83 -178ZM80 253V433H260V253H80Z" />
<glyph unicode="&lt;" glyph-name="less" horiz-adv-x="556" d="M53 224V366L503 564V391L268 295L503 199V26L53 224Z" />
<glyph unicode="=" glyph-name="equal" horiz-adv-x="556" d="M49 340V494H507V340H49ZM49 96V250H507V96H49Z" />
<glyph unicode="&gt;" glyph-name="greater" horiz-adv-x="556" d="M53 26V199L288 295L53 391V564L503 366V224L53 26Z" />
<glyph unicode="?" glyph-name="question" horiz-adv-x="538" d="M508 508Q508 469 493 438T457 380L388 293Q381 285 376 272T370 246V237H206V260Q206 294 215 319T247 371L317 453Q328 466 336 481T344 509Q344 535 329 552T284 570Q252 570 238 552T224 507H60Q60
558 78 597T126 663T198 704T284 718Q328 718 368 705T440 665T489 600T508 508ZM204 0V161H372V0H204Z" />
<glyph unicode="@" glyph-name="at" horiz-adv-x="784" d="M584 0V40Q561 17 536 6T471 -6Q434 -6 404 5T351 38Q334 54 324 73T310 115T304 165T303 226Q303 259 304 286T309 336T324 378T351 414Q373 435 403 446T470 458Q505 458 531 448T579 417V443Q579 469
573 493T547 538Q528 557 503 563T452 570H332Q306 570 282 564T237 538Q216 517 211 493T205 443V181Q205 149 213 132T241 95L128 -18Q107 3 93 22T68 63T54 111T49 171V449Q49 516 62 566T113 654Q151 692 201 705T321 718H463Q529 718 580 706T671 654Q709
616 722 567T735 449V0H584ZM579 226Q579 280 564 301T519 322Q489 322 474 301T459 226Q459 172 474 151T519 130Q549 130 564 151T579 226Z" />
<glyph unicode="A" glyph-name="A" horiz-adv-x="653" d="M470 0L437 106H218L183 0H0L259 712H394L653 0H470ZM331 442L267 252H391L331 442Z" />
<glyph unicode="B" glyph-name="B" horiz-adv-x="653" d="M604 210Q604 159 587 120T541 54T471 14T382 0H72V712H367Q422 712 464 697T536 655T579 590T594 506Q594 476 585 452T564 411T538 382T516 365Q527 358 542 347T571 318T594 274T604 210ZM429 220Q429
243 415 262T365 282H247V157H365Q401 157 415 177T429 220ZM419 497Q419 518 406 536T356 555H247V439H356Q392 439 405 457T419 497Z" />
<glyph unicode="C" glyph-name="C" horiz-adv-x="609" d="M589 226Q579 167 555 124T496 51T416 8T320 -6Q254 -6 207 14T122 72Q95 99 80 130T58 196T50 271T49 356Q49 401 50 440T58 515T80 582T122 640Q160 678 207 698T320 718Q371 718 415 704T495 661T555
589T589 486H411Q403 516 383 539T320 562Q296 562 279 554T251 532Q245 524 240 514T232 485T226 436T224 356Q224 307 226 277T231 227T240 198T251 180Q261 167 278 159T320 150Q363 150 383 173T411 226H589Z" />
<glyph unicode="D" glyph-name="D" horiz-adv-x="651" d="M602 356Q602 310 602 276T598 214T587 164T567 120Q530 60 474 30T336 0H72V712H336Q417 712 473 682T567 592Q580 571 587 549T597 499T601 437T602 356ZM427 356Q427 401 426 429T423 473T417 499T408
516Q396 534 377 545T324 556H247V156H324Q357 156 376 167T408 196Q413 203 416 212T422 238T426 283T427 356Z" />
<glyph unicode="E" glyph-name="E" horiz-adv-x="608" d="M72 0V712H556V556H247V437H511V281H247V156H556V0H72Z" />
<glyph unicode="F" glyph-name="F" horiz-adv-x="596" d="M247 556V431H511V275H247V0H72V712H556V556H247Z" />
<glyph unicode="G" glyph-name="G" horiz-adv-x="647" d="M598 311Q598 225 582 170T526 74Q480 27 429 11T319 -6Q254 -6 207 14T122 72Q95 99 80 130T58 196T50 271T49 356Q49 401 50 440T58 515T80 582T122 640Q160 678 207 698T319 718Q388 718 437 698T520
644T572 569T597 482H421Q410 523 387 542T319 562Q295 562 278 553T250 531Q244 523 239 513T231 485T226 436T224 356Q224 307 226 277T231 227T239 198T250 180Q260 167 277 159T319 150Q347 150 366 157T397 178Q412 193 418 213T424 254V264H319V410H598V311Z"
/>
<glyph unicode="H" glyph-name="H" horiz-adv-x="680" d="M433 0V282H247V0H72V712H247V438H433V712H608V0H433Z" />
<glyph unicode="I" glyph-name="I" horiz-adv-x="319" d="M72 0V712H247V0H72Z" />
<glyph unicode="J" glyph-name="J" horiz-adv-x="516" d="M454 244Q454 181 431 134T371 56T285 10T186 -6Q124 -6 80 11T-8 72L107 186Q124 169 140 160T186 150Q227 150 253 173T279 248V712H454V244Z" />
<glyph unicode="K" glyph-name="K" horiz-adv-x="673" d="M469 0L305 292L245 223V0H72V712H245V460L451 712H665L422 424L673 0H469Z" />
<glyph unicode="L" glyph-name="L" horiz-adv-x="576" d="M72 0V712H247V156H546V0H72Z" />
<glyph unicode="M" glyph-name="M" horiz-adv-x="808" d="M561 0V341L460 165H348L247 341V0H72V712H244L404 398L564 712H736V0H561Z" />
<glyph unicode="N" glyph-name="N" horiz-adv-x="700" d="M475 0L247 358V0H72V712H225L453 354V712H628V0H475Z" />
<glyph unicode="O" glyph-name="O" horiz-adv-x="640" d="M591 356Q591 311 590 272T582 197T560 130T518 72Q480 34 433 14T320 -6Q254 -6 207 14T122 72Q95 99 80 130T58 196T50 271T49 356Q49 401 50 440T58 515T80 582T122 640Q160 678 207 698T320 718Q386
718 433 698T518 640Q545 613 560 582T582 516T590 441T591 356ZM416 356Q416 405 414 435T409 484T401 513T390 531Q380 544 362 553T320 562Q296 562 278 553T250 531Q244 523 239 513T231 485T226 436T224 356Q224 307 226 277T231 229T239 200T250 182Q260
169 278 160T320 150Q344 150 362 159T390 182Q396 190 401 200T409 228T414 277T416 356Z" />
<glyph unicode="P" glyph-name="P" horiz-adv-x="627" d="M597 483Q597 439 581 398T535 325T459 274T354 254H247V0H72V712H354Q413 712 458 693T534 641T581 568T597 483ZM422 483Q422 511 402 533T346 555H247V411H346Q382 411 402 433T422 483Z" />
<glyph unicode="Q" glyph-name="Q" horiz-adv-x="640" d="M591 356Q591 319 591 286T586 222T574 164T550 112L602 61L513 -28L458 26Q400 -6 320 -6Q254 -6 207 14T122 72Q95 99 80 130T58 196T50 271T49 356Q49 401 50 440T58 515T80 582T122 640Q160 678 207
698T320 718Q386 718 433 698T518 640Q545 613 560 582T582 516T590 441T591 356ZM416 356Q416 405 414 435T409 484T401 513T390 531Q380 544 362 553T320 562Q296 562 278 553T250 531Q244 523 239 513T231 485T226 436T224 356Q224 307 226 277T231 229T239
200T250 182Q260 169 278 160T320 150Q329 150 334 151L289 196L378 285L412 251Q414 269 415 294T416 356Z" />
<glyph unicode="R" glyph-name="R" horiz-adv-x="652" d="M432 0L306 265H247V0H72V712H354Q413 712 458 693T534 641T581 568T597 483Q597 447 587 417T560 364T523 324T481 297L635 0H432ZM422 483Q422 511 402 533T346 555H247V411H346Q382 411 402 433T422 483Z" />
<glyph unicode="S" glyph-name="S" horiz-adv-x="593" d="M550 218Q550 164 528 122T469 52T381 9T275 -6Q234 -6 197 -2T126 13T62 42T5 88L117 200Q145 172 189 161T276 150Q378 150 378 214Q378 241 364 256Q349 271 317 275L231 287Q136 301 88 350Q39 400
39 493Q39 542 57 583T108 654T190 701T299 718Q376 718 434 699T539 633L429 523Q401 551 369 558T294 565Q271 565 255 559T229 544T213 523T208 499Q208 492 211 483T222 466Q229 459 240 453T271 445L357 433Q451 420 497 374Q526 346 538 307T550 218Z" />
<glyph unicode="T" glyph-name="T" horiz-adv-x="585" d="M380 556V0H205V556H30V712H555V556H380Z" />
<glyph unicode="U" glyph-name="U" horiz-adv-x="660" d="M600 250Q600 191 579 144T520 64T434 12T329 -6Q273 -6 225 12T139 63T81 144T60 250V712H235V254Q235 204 260 177T329 150Q373 150 399 177T425 254V712H600V250Z" />
<glyph unicode="V" glyph-name="V" horiz-adv-x="601" d="M365 0H235L0 712H181L301 314L419 712H601L365 0Z" />
<glyph unicode="W" glyph-name="W" horiz-adv-x="906" d="M711 0H568L453 351L338 0H196L0 712H183L276 336L391 712H515L630 336L723 712H906L711 0Z" />
<glyph unicode="X" glyph-name="X" horiz-adv-x="634" d="M434 0L317 219L200 0H0L222 365L14 712H213L317 511L421 712H620L412 365L634 0H434Z" />
<glyph unicode="Y" glyph-name="Y" horiz-adv-x="605" d="M390 290V0H215V290L0 712H191L303 456L414 712H605L390 290Z" />
<glyph unicode="Z" glyph-name="Z" horiz-adv-x="543" d="M30 0V136L303 556H42V712H513V576L239 156H513V0H30Z" />
<glyph unicode="[" glyph-name="bracketleft" horiz-adv-x="416" d="M72 -74V786H376V638H236V74H376V-74H72Z" />
<glyph unicode="\" glyph-name="backslash" horiz-adv-x="431" d="M279 -74L0 768H152L431 -74H279Z" />
<glyph unicode="]" glyph-name="bracketright" horiz-adv-x="416" d="M40 -74V74H180V638H40V786H344V-74H40Z" />
<glyph unicode="^" glyph-name="asciicircum" horiz-adv-x="640" d="M410 375L320 540L230 375H57L244 720H396L583 375H410Z" />
<glyph unicode="_" glyph-name="underscore" horiz-adv-x="640" d="M0 -186V-78H640V-186H0Z" />
<glyph unicode="`" glyph-name="grave" horiz-adv-x="500" d="M224 610L123 790H276L341 610H224Z" />
<glyph unicode="a" glyph-name="a" horiz-adv-x="536" d="M323 0V44Q298 19 272 7T203 -5Q162 -5 130 7T74 43Q51 66 39 98T27 169Q27 199 37 227T70 277T128 312T213 325H319V339Q319 376 300 391T238 406Q210 406 192 397T153 368L51 470Q72 491 92 505T135
527T185 540T246 544Q362 544 422 496T483 349V0H323ZM319 216H241Q212 216 198 204T184 172Q184 153 198 141T243 128Q263 128 276 132T302 147Q312 156 315 168T319 202V216Z" />
<glyph unicode="b" glyph-name="b" horiz-adv-x="569" d="M526 269Q526 234 525 202T519 141T504 87T475 43Q452 19 418 7T345 -6Q303 -6 275 6T221 44V0H62V712H226V499Q249 522 277 533T346 544Q385 544 418 532T475 495Q494 475 504 451T519 398T525 337T526
269ZM362 269Q362 298 360 321T351 361T331 387T294 396Q271 396 258 387T237 362T228 322T226 269Q226 240 228 217T237 177T257 151T294 142Q317 142 330 151T351 176T360 216T362 269Z" />
<glyph unicode="c" glyph-name="c" horiz-adv-x="475" d="M457 63Q424 30 381 12T280 -6Q245 -6 203 4T124 43T63 127T38 269Q38 357 62 411T124 494T203 534T280 544Q337 544 380 526T457 475L346 364Q330 380 315 388T280 396Q263 396 252 391T229 375Q202 347
202 269Q202 191 229 163Q240 152 251 147T280 142Q300 142 315 150T346 174L457 63Z" />
<glyph unicode="d" glyph-name="d" horiz-adv-x="569" d="M348 0V44Q323 19 295 7T224 -6Q185 -6 151 6T94 43Q75 62 65 87T50 140T44 201T43 269Q43 304 44 336T50 397T65 450T94 495Q117 519 150 531T223 544Q263 544 291 533T343 499V712H507V0H348ZM343 269Q343
298 341 321T332 361T312 387T275 396Q252 396 239 387T218 362T209 322T207 269Q207 240 209 217T218 177T238 151T275 142Q298 142 311 151T332 176T341 216T343 269Z" />
<glyph unicode="e" glyph-name="e" horiz-adv-x="559" d="M199 216Q199 183 223 158T294 132Q337 132 360 143T405 177L503 79Q482 58 461 43T416 16T361 0T294 -6Q249 -6 204 4T122 44T62 128T38 269Q38 335 56 386T106 472T182 526T279 544Q337 544 382 524T458
470T505 387T521 284V216H199ZM359 325Q359 335 357 345T350 367Q342 384 325 396T279 409Q250 409 233 397T208 367Q203 356 201 346T199 325H359Z" />
<glyph unicode="f" glyph-name="f" horiz-adv-x="358" d="M243 391V0H79V391H30V517H79V564Q79 592 88 620T118 671T169 708T246 723H333V585H276Q243 585 243 552V517H333V391H243Z" />
<glyph unicode="g" glyph-name="g" horiz-adv-x="561" d="M499 39Q499 -9 482 -49T433 -118T356 -163T256 -180Q193 -180 144 -166T54 -110L156 -8Q175 -27 197 -34T248 -42Q274 -42 291 -34T317 -14T331 12T335 40V79Q312 56 285 45T219 34Q141 34 93 82Q75 100
65 121T50 167T44 222T43 289Q43 326 44 356T49 411T64 457T93 496Q141 544 220 544Q262 544 288 532T340 494V538H499V39ZM335 289Q335 310 334 329T326 363T306 387T271 396Q248 396 236 387T217 363T209 329T207 289Q207 268 208 249T216 215T235 191T271 182Q293
182 306 191T325 215T333 249T335 289Z" />
<glyph unicode="h" glyph-name="h" horiz-adv-x="579" d="M358 0V322Q358 345 351 359T334 382T312 393T292 396Q284 396 273 393T251 382T233 360T226 322V0H62V712H226V494Q250 519 281 531T347 544Q385 544 415 532T468 498Q503 463 512 425T522 344V0H358Z" />
<glyph unicode="i" glyph-name="i" horiz-adv-x="288" d="M62 0V517H226V0H62ZM62 593V718H226V593H62Z" />
<glyph unicode="j" glyph-name="j" horiz-adv-x="288" d="M226 -21Q226 -49 217 -77T187 -128T136 -165T59 -180H-28V-42H29Q62 -42 62 -9V517H226V-21ZM62 593V718H226V593H62Z" />
<glyph unicode="k" glyph-name="k" horiz-adv-x="573" d="M370 0L258 197L226 162V0H62V712H226V350L371 538H568L370 315L573 0H370Z" />
<glyph unicode="l" glyph-name="l" horiz-adv-x="341" d="M224 0Q179 0 148 14T96 52T67 103T57 159V712H221V171Q221 138 254 138H311V0H224Z" />
<glyph unicode="m" glyph-name="m" horiz-adv-x="875" d="M654 0V322Q654 345 647 359T630 382T608 393T588 396Q580 396 569 393T547 382T529 360T522 322V0H358V322Q358 345 351 359T334 382T312 393T292 396Q284 396 273 393T251 382T233 360T226 322V0H62V538H222V494Q247
519 281 531T347 544Q387 544 419 531T478 487Q513 518 548 531T630 544Q668 544 702 532T759 498Q794 463 806 425T818 344V0H654Z" />
<glyph unicode="n" glyph-name="n" horiz-adv-x="579" d="M358 0V322Q358 345 351 359T334 382T312 393T292 396Q284 396 273 393T251 382T233 360T226 322V0H62V538H222V494Q247 519 281 531T347 544Q385 544 415 532T468 498Q503 463 512 425T522 344V0H358Z" />
<glyph unicode="o" glyph-name="o" horiz-adv-x="550" d="M507 269Q507 229 504 199T495 145T477 101T448 63Q424 37 382 16T275 -6Q210 -6 168 15T102 63Q85 81 74 101T56 145T46 199T43 269Q43 308 46 338T55 393T73 437T102 475Q114 488 130 500T168 522T215
538T275 544Q308 544 334 538T382 522T419 500T448 475Q465 457 476 437T494 393T504 339T507 269ZM343 269Q343 309 339 337T319 381Q304 396 275 396Q246 396 231 381Q215 365 211 337T207 269Q207 229 211 201T231 157Q246 142 275 142Q304 142 319 157Q335
173 339 201T343 269Z" />
<glyph unicode="p" glyph-name="p" horiz-adv-x="569" d="M526 269Q526 234 525 202T519 141T504 87T475 43Q452 19 419 7T346 -6Q306 -6 278 5T226 39V-174H62V538H221V494Q246 519 274 531T345 544Q384 544 418 532T475 495Q494 475 504 451T519 398T525 337T526
269ZM362 269Q362 298 360 321T351 361T331 387T294 396Q271 396 258 387T237 362T228 322T226 269Q226 240 228 217T237 177T257 151T294 142Q317 142 330 151T351 176T360 216T362 269Z" />
<glyph unicode="q" glyph-name="q" horiz-adv-x="569" d="M343 -174V39Q320 16 292 5T223 -6Q184 -6 151 6T94 43Q75 62 65 87T50 140T44 201T43 269Q43 304 44 336T50 397T65 450T94 495Q117 519 151 531T224 544Q266 544 294 532T348 494V538H507V-174H343ZM343
269Q343 298 341 321T332 361T312 387T275 396Q252 396 239 387T218 362T209 322T207 269Q207 240 209 217T218 177T238 151T275 142Q298 142 311 151T332 176T341 216T343 269Z" />
<glyph unicode="r" glyph-name="r" horiz-adv-x="475" d="M351 368Q339 380 326 388T292 396Q284 396 273 393T251 382T233 360T226 322V0H62V538H222V494Q240 512 273 528T349 544Q389 544 418 533T475 494L351 368Z" />
<glyph unicode="s" glyph-name="s" horiz-adv-x="504" d="M477 176Q477 128 458 94T407 38T333 5T244 -6Q214 -6 184 -4T125 5T67 28T10 72L116 178Q133 161 151 152T188 139T221 134T247 133Q256 133 268 134T291 140T309 150T317 168Q317 179 310 189T278 202L195
210Q160 213 132 223T83 252T51 299T39 366Q39 411 57 444T106 499T174 533T253 544Q319 544 372 531T465 478L364 377Q344 397 313 403T250 409Q220 409 209 398T197 378Q197 366 204 358T232 348L315 340Q357 336 388 322T438 286T467 236T477 176Z" />
<glyph unicode="t" glyph-name="t" horiz-adv-x="363" d="M241 0Q196 0 165 14T113 52T84 103T74 159V391H25V517H74V671H238V517H323V391H238V171Q238 138 271 138H323V0H241Z" />
<glyph unicode="u" glyph-name="u" horiz-adv-x="579" d="M357 0V44Q332 19 298 7T232 -6Q194 -6 164 6T111 40Q76 75 67 113T57 194V538H221V216Q221 193 228 179T245 156T267 145T287 142Q295 142 306 145T328 156T346 178T353 216V538H517V0H357Z" />
<glyph unicode="v" glyph-name="v" horiz-adv-x="521" d="M323 0H198L0 538H172L261 259L349 538H521L323 0Z" />
<glyph unicode="w" glyph-name="w" horiz-adv-x="780" d="M618 0H487L390 295L293 0H162L0 538H173L240 259L333 538H447L540 259L607 538H780L618 0Z" />
<glyph unicode="x" glyph-name="x" horiz-adv-x="556" d="M359 0L277 136L197 0H0L187 275L7 538H204L277 408L352 538H549L369 275L556 0H359Z" />
<glyph unicode="y" glyph-name="y" horiz-adv-x="514" d="M299 -64Q283 -109 257 -135Q233 -161 203 -170T136 -180H74V-32H109Q131 -32 143 -25T164 8L179 53L0 538H172L263 259L350 538H522L299 -64Z" />
<glyph unicode="z" glyph-name="z" horiz-adv-x="489" d="M30 0V121L235 390H42V538H449V417L240 148H449V0H30Z" />
<glyph unicode="{" glyph-name="braceleft" horiz-adv-x="518" d="M338 -74Q298 -74 269 -63T219 -32Q193 -6 182 24T171 85V204Q171 247 154 264Q136 282 98 282H40V430H98Q136 430 154 448Q171 465 171 508V627Q171 658 182 688T219 744Q239 764 268 775T338
786H478V638H408Q387 638 373 635T351 624Q335 608 335 560V456Q335 426 327 407T306 378T282 363T262 356Q269 354 281 350T306 335T326 305T335 256V152Q335 104 351 88Q359 80 373 77T408 74H478V-74H338Z" />
<glyph unicode="|" glyph-name="bar" horiz-adv-x="364" d="M100 -74V786H264V-74H100Z" />
<glyph unicode="}" glyph-name="braceright" horiz-adv-x="518" d="M420 282Q382 282 364 264Q347 247 347 204V85Q347 54 336 24T299 -32Q279 -52 250 -63T180 -74H40V74H110Q131 74 145 77T167 88Q176 97 179 112T183 152V256Q183 286 191 305T212 334T236 349T256
356Q249 358 237 362T212 377T192 407T183 456V560Q183 608 167 624Q159 632 145 635T110 638H40V786H180Q220 786 249 775T299 744Q325 718 336 688T347 627V508Q347 465 364 448Q382 430 420 430H478V282H420Z" />
<glyph unicode="~" glyph-name="asciitilde" horiz-adv-x="646" d="M616 283Q567 234 525 211T429 187Q395 187 368 194T306 221Q284 234 265 240T222 246Q202 246 182 239T134 205L30 309Q54 333 76 351T120 381T165 399T215 405Q249 405 276 398T338 371Q360
358 379 352T422 346Q442 346 462 353T510 387L616 283Z" />
</font>
</defs>
</svg>
